<?xml version="1.0" encoding="UTF-8" standalone="no"?>
<svg
   xmlns:dc="http://purl.org/dc/elements/1.1/"
   xmlns:cc="http://creativecommons.org/ns#"
   xmlns:rdf="http://www.w3.org/1999/02/22-rdf-syntax-ns#"
   xmlns:svg="http://www.w3.org/2000/svg"
   xmlns="http://www.w3.org/2000/svg"
   viewBox="0 0 433.33334 326.66666"
   height="326.66666"
   width="433.33334"
   xml:space="preserve"
   id="svg2"
   version="1.1"><metadata
     id="metadata8"><rdf:RDF><cc:Work
         rdf:about=""><dc:format>image/svg+xml</dc:format><dc:type
           rdf:resource="http://purl.org/dc/dcmitype/StillImage" /></cc:Work></rdf:RDF></metadata><defs
     id="defs6" /><g
     transform="matrix(1.3333333,0,0,-1.3333333,0,326.66667)"
     id="g10"><g
       transform="scale(0.1)"
       id="g12"><path
         id="path14"
         style="fill:#000000;fill-opacity:1;fill-rule:evenodd;stroke:none"
         d="m 3144.49,423.012 c -25,-22.032 -89.02,-48.172 -191.99,-78.524 -103.36,-30.347 -225.86,-61.476 -367.5,-93.508 -141.68,-32.308 -283.01,-62.308 -424.02,-90 -140.67,-27.968 -260.82,-50.671 -360.51,-67.9683 -100,-17.3515 -159.81,-26.3711 -179.49,-27.0312 v -30 30 c -19.34,0.6601 -78.99,9.6797 -178.99,27.0312 -100,17.2973 -220.35,40.0003 -361.01,67.9683 -140.671,27.692 -281.839,57.692 -423.48,90 C 515.469,283.012 392.969,314.141 290,344.488 186.641,374.84 122.66,400.98 97.9688,423.012 75,449.34 65.8203,496.328 70.4688,563.98 c 4.6914,67.661 16.1718,142 34.5312,223.008 18.32,81.024 36.328,154.492 53.98,220.512 28.321,101.64 44.34,174.49 48.008,218.48 v 4.02 c -3.668,43.98 -19.687,116.84 -48.008,218.48 -17.652,66.01 -35.66,139.53 -53.98,220.5 -18.3594,81.02 -29.8398,155.36 -34.5312,223.01 -4.6485,67.66 4.5312,114.65 27.5,141.02 24.6912,21.99 88.6722,48.16 192.0312,78.47 102.969,30.36 225.469,61.53 367.5,93.52 141.641,32.34 282.809,62.34 423.48,90 141.01,28.01 261.32,50.66 361.01,68.01 100,17.3 159.65,26.33 178.99,26.99 19.33,-0.66 79.02,-9.69 179.02,-26.99 100,-17.35 220.31,-40 360.98,-68.01 140.66,-27.66 281.99,-57.66 424.02,-90 141.64,-31.99 264.14,-63.16 367.5,-93.52 102.97,-30.31 166.99,-56.48 191.99,-78.47 23.01,-26.37 32.15,-73.36 27.5,-141.02 -4.69,-67.65 -16.17,-141.99 -34.49,-223.01 -18.36,-80.97 -36.52,-154.49 -54.53,-220.5 -27.97,-101.64 -43.83,-174.5 -47.5,-218.48 v -4.02 c 3.67,-43.99 19.69,-116.84 48.01,-218.48 17.65,-66.02 35.66,-139.488 54.02,-220.512 18.32,-81.008 29.8,-155.347 34.49,-223.008 4.65,-67.652 -4.49,-114.64 -27.5,-140.968 M 3245.98,1240 c 0,88.32 -5,167.15 -15,236.48 -10,69.69 -23.17,123.01 -39.5,160 24.34,104.34 38.01,194.85 41.02,271.53 2.66,76.33 -12.5,132.15 -45.51,167.5 -57.65,56.64 -327.34,135.66 -809.02,236.99 -118.63,24.65 -232.97,47.34 -342.97,68.01 -110,20.97 -202.7,37.65 -278.01,50 -75.66,12.65 -120.86,19.14 -135.51,19.49 -0.35,0 -0.5,0 -0.5,0 -15,-0.35 -60.16,-6.84 -135.51,-19.49 -75.31,-12.35 -167.97,-29.03 -277.97,-50 -110,-20.67 -224.34,-43.36 -343.012,-68.01 C 382.809,2211.17 113.16,2132.15 55.4688,2075.51 22.1484,2039.84 6.98828,1983.32 10,1905.98 c 2.9688,-77.66 16.9883,-169.34 41.9883,-275 -15.6602,-38.32 -28.1602,-91.64 -37.5,-160 C 5.16016,1403.01 0.308594,1325.98 0,1240 c 0.308594,-89.02 5.46875,-168.52 15.4688,-238.52 10,-70.308 23.5117,-123.82 40.5117,-160.5 C 29.6484,731.641 14.4883,636.641 10.4688,555.98 6.48047,475.66 21.4805,417.148 55.4688,380.512 113.16,323.832 382.809,244.84 864.488,143.48 983.16,118.832 1097.5,96.1719 1207.5,75.5117 c 110,-21.0234 202.66,-37.7031 277.97,-50 75.66,-12.7031 120.86,-19.17967 135.51,-19.53123 0.35,0 0.35,0 0,0 0.35,0 0.35,0 0,0 15,0.35156 60.15,6.82813 135.5,19.53123 75.67,12.2969 168.52,28.9766 278.52,50 110,20.6602 224.34,43.3203 342.97,67.9683 481.68,101.36 751.37,180.352 809.02,237.032 33.67,36.328 48.67,94.136 45,173.468 -3.67,79.692 -18.36,173.68 -44.02,282 17.34,35.661 31.37,89.02 42.03,160 10.66,71.36 15.98,152.69 15.98,244.02" /><path
         id="path16"
         style="fill:#ffffff;fill-opacity:1;fill-rule:evenodd;stroke:none"
         d="m 2798.98,598.98 c -21.01,-18.671 -71.83,-40.152 -152.5,-64.492 -80.66,-23.976 -175.82,-48.316 -285.5,-73.008 -109.65,-25 -218.68,-48 -327,-68.98 -108.32,-21.328 -200.82,-38.52 -277.5,-51.52 -76.32,-12.968 -121.48,-19.648 -135.5,-20 -13.99,0.352 -59.14,7.032 -135.51,20 -76.33,13 -168.63,30.192 -276.99,51.52 -108.32,20.98 -217.5,43.98 -327.5,68.98 -109.652,24.692 -204.851,49.18 -285.511,73.52 -80.668,23.98 -131.489,45.309 -152.5,63.98 -19.34,21.68 -28.168,57.5 -26.489,107.5 l -10,-0.5 c -1.679,-52.308 8.168,-90.32 29.5,-113.992 21.321,-18.976 72.5,-40.66 153.508,-65 81.332,-24.328 177.153,-48.976 287.5,-73.976 110.313,-25.352 220.002,-48.672 328.992,-70 C 1315,361.641 1407.97,344.34 1485,330.98 c 76.64,-12.968 121.99,-19.648 135.98,-20 14.02,0.352 59.49,7.18 136.52,20.5 76.64,13.008 169.49,30.161 278.48,51.532 109.02,21.328 218.82,44.648 329.49,70 110.35,25 206.01,49.648 287.03,73.976 81.33,24.34 132.66,46.024 153.98,65 21.02,23.672 30.67,61.684 28.99,113.992 l -10,0.5 c 2.03,-50 -6.84,-85.82 -26.49,-107.5" /><path
         id="path18"
         style="fill:#ffffff;fill-opacity:1;fill-rule:evenodd;stroke:none"
         d="m 442.969,1855.98 c 21.011,19.02 71.832,40.5 152.5,64.53 80.66,23.98 175.859,48.47 285.511,73.47 110,25 219.18,48.01 327.5,69.03 108.36,21.33 200.66,38.47 276.99,51.48 76.68,13.01 121.83,19.65 135.51,20 14.02,-0.35 59.18,-6.99 135.5,-20 76.68,-13.01 169.18,-30.15 277.5,-51.48 108.32,-21.02 217.35,-44.03 327,-69.03 110,-25 205.35,-49.49 286.01,-73.47 80.67,-24.03 131.33,-45.51 151.99,-64.53 23.32,-27 31.68,-73.83 25,-140.47 l 10,0.47 c 7,68.67 -2.14,117.85 -27.5,147.5 -21.32,19.02 -72.5,40.66 -153.51,65 -81.33,24.33 -177.15,49.02 -287.5,74.02 -110.67,25 -220.47,48.32 -329.49,70 -108.99,21.33 -201.84,38.48 -278.48,51.48 -77.03,13.36 -122.5,20.16 -136.52,20.51 -13.99,-0.35 -59.34,-7.15 -135.98,-20.51 -77.03,-13 -170,-30.15 -279.02,-51.48 -108.99,-21.68 -218.679,-45 -328.992,-70 -110.347,-25 -206.168,-49.69 -287.5,-74.02 -81.008,-24.34 -132.187,-45.98 -153.508,-65 -25.32,-29.65 -34.652,-78.83 -28.011,-147.5 l 10.511,-0.47 c -6.64,66.64 1.52,113.47 24.489,140.47" /><path
         id="path20"
         style="fill:#ffffff;fill-opacity:1;fill-rule:evenodd;stroke:none"
         d="m 2866.48,1718.01 1.02,-0.51 h 2.5 l -3.52,0.51" /><path
         id="path22"
         style="fill:#ffffff;fill-opacity:1;fill-rule:evenodd;stroke:none"
         d="m 427.5,1646.99 c -4.02,23.99 -7.031,46.84 -9.02,68.52 l -10,0.47 c 1.68,-22 4.489,-45 8.508,-68.99 H 427.5" /><path
         id="path24"
         style="fill:#ffffff;fill-opacity:1;fill-rule:evenodd;stroke:none"
         d="m 427.5,1646.99 h -10.512 c 0.981,-5.66 1.992,-11.48 3.012,-17.5 l 10,0.51 c -0.66,5.66 -1.52,11.33 -2.5,16.99" /><path
         id="path26"
         style="fill:#ffffff;fill-opacity:1;fill-rule:evenodd;stroke:none"
         d="m 2815.47,1646.99 h 10.51 c 3.67,23.99 6.52,46.99 8.51,68.99 l -10.51,-0.47 c -1.68,-21.68 -4.49,-44.53 -8.51,-68.52" /><path
         id="path28"
         style="fill:#ffffff;fill-opacity:1;fill-rule:evenodd;stroke:none"
         d="m 2822.97,1629.49 c 1.01,6.02 1.83,11.84 2.5,17.5 h -10 c -0.98,-5.66 -1.99,-11.33 -2.97,-16.99 l 10.47,-0.51" /><path
         id="path30"
         style="fill:#ffffff;fill-opacity:1;fill-rule:evenodd;stroke:none"
         d="M 2866.48,704.488 2870,705 h -2.5 l -1.02,-0.512" /><path
         id="path32"
         style="fill:#ffffff;fill-opacity:1;fill-rule:evenodd;stroke:none"
         d="m 424.488,792.5 -10.508,0.512 c -4.332,-31.024 -6.832,-59.852 -7.5,-86.532 l 10,0.508 c 0.668,26.332 3.321,54.852 8.008,85.512" /><path
         id="path34"
         style="fill:#ffffff;fill-opacity:1;fill-rule:evenodd;stroke:none"
         d="m 2817.97,792.5 c 4.69,-30.66 7.34,-59.18 8.01,-85.512 l 10,-0.508 c -0.67,26.68 -3.32,55.508 -8.01,86.532 l -10,-0.512" /><path
         id="path36"
         style="fill:#00ff00;fill-opacity:1;fill-rule:evenodd;stroke:none"
         d="m 2866.48,704.488 1.02,0.512 h 2.5 l -3.52,-0.512 m -60.5,-112.5 c -20.98,-18.976 -72.15,-40.66 -153.48,-65 -81.02,-24.328 -176.84,-48.976 -287.5,-73.976 -110.35,-25.352 -220,-48.672 -329.02,-70 -108.99,-21.371 -201.84,-38.672 -278.48,-52.032 -77.03,-12.968 -122.5,-19.648 -136.52,-20 -13.99,0.352 -59.34,7.032 -135.98,20 -77.03,13.36 -170,30.661 -279.02,52.032 -108.99,21.328 -218.679,44.648 -328.992,70 -110.66,25 -206.519,49.648 -287.5,73.976 -81.328,24.34 -132.5,46.024 -153.508,65 -21.332,23.672 -31.179,61.684 -29.5,113.992 0.36,26.68 2.86,55.5 7.5,86.52 h 10.508 c -4.687,-31.02 -7.34,-59.691 -8.008,-86.02 -1.679,-50 7.149,-85.82 26.489,-107.5 21.011,-18.671 71.832,-40.152 152.5,-64.492 80.66,-23.976 175.859,-48.316 285.511,-73.008 109.68,-25 218.82,-48.16 327.5,-69.492 108.36,-21.008 200.66,-38.008 276.99,-51.008 76.37,-12.968 121.52,-19.648 135.51,-20 14.02,0.352 59.18,7.032 135.5,20 76.33,13 168.68,30.192 277,51.52 108.67,20.98 217.85,43.98 327.5,68.98 109.68,24.692 204.84,49.18 285.5,73.52 80.67,23.98 131.49,45.309 152.5,63.98 19.34,21.68 28.17,57.5 26.49,107.5 -0.67,26.329 -3.32,54.848 -7.97,85.508 l 10.47,0.512 c 4.33,-31.02 6.83,-59.84 7.5,-86.52 1.68,-52.308 -8.17,-90.32 -29.49,-113.992 M 2964.49,797.5 H 175 l 56.988,-28.012 48.012,-23.976 82.969,-41.024 -87.5,8.524 C 270.16,669.34 269.141,630.82 272.5,597.5 276.129,564.141 285.98,538.98 301.988,521.988 325.66,500.66 382.969,476.48 473.98,449.488 565,422.5 672.148,395 795.469,366.988 c 123.672,-28.008 246.171,-53.828 367.501,-77.5 121.68,-23.668 224.84,-42.847 309.53,-57.5 85,-14.328 134.49,-21.679 148.48,-21.988 14.02,0.309 63.51,7.809 148.51,22.5 84.65,14.34 187.81,33.32 309.49,56.988 121.33,23.672 243.83,49.492 367.5,77.5 123.32,28.012 230.51,55.512 321.49,82.5 91.01,26.992 148.36,51.172 172.03,72.5 15.98,16.992 25.82,42.352 29.49,76.024 3.32,33.629 2.35,72.5 -3.01,116.476 l -83.51,-8.508 79.02,39.02 39.49,19.488 66.02,33.012 H 2964.49 M 435.98,1863.48 c 21.008,19.02 72.18,40.66 153.508,65 80.981,24.33 176.84,49.02 287.5,74.02 110.313,25.31 220.002,48.67 328.992,70 109.02,21.33 201.83,38.48 278.51,51.48 76.99,13.36 122.5,20.16 136.49,20.51 14.02,-0.35 59.33,-7.15 136.01,-20.51 76.99,-13 170,-30.15 278.99,-51.48 109.02,-21.68 218.67,-45 329.02,-70 110.66,-25 206.48,-49.69 287.5,-74.02 81.33,-24.34 132.5,-45.98 153.48,-65 25.35,-29.65 34.68,-78.83 28,-147.5 -1.68,-22 -4.49,-45 -8.51,-68.99 -0.98,-5.66 -1.99,-11.48 -2.97,-17.5 l -10,0.51 c 0.66,5.66 1.48,11.33 2.5,16.99 3.98,23.99 6.84,46.84 8.48,68.52 6.99,66.64 -1.18,113.47 -24.5,140.47 -21.01,19.02 -71.83,40.5 -152.5,64.53 -80.66,23.98 -175.82,48.47 -285.5,73.47 -109.65,25 -218.68,48.01 -327,69.03 -108.67,21.33 -201.17,38.47 -277.5,51.48 -76.32,13.01 -121.48,19.65 -135.5,20 -13.99,-0.35 -59.14,-6.99 -135.51,-20 -76.33,-13.01 -168.63,-30.15 -276.99,-51.48 -108.68,-21.02 -217.82,-44.03 -327.5,-69.03 -109.652,-25 -204.851,-49.49 -285.511,-73.47 -80.668,-24.03 -131.489,-45.51 -152.5,-64.53 -23.321,-27 -31.489,-73.83 -24.489,-140.47 1.68,-21.68 4.489,-44.53 8.508,-68.52 0.672,-5.66 1.492,-11.33 2.5,-16.99 l -10,-0.51 c -1.008,6.02 -1.988,11.84 -3.008,17.5 -3.98,23.99 -6.832,46.99 -8.511,68.99 -6.641,68.67 2.691,117.85 28.011,147.5 M 2870,1716.99 h -2.5 l -1.02,0.51 3.52,-0.51 M 277.969,1624.49 H 3067.5 l -66.02,33.01 -44.49,21.99 -74.02,36.49 79.02,-7.97 c 8.01,51.33 10.82,96.83 8.48,136.48 -2.31,40 -12.5,69.65 -30.47,88.99 -23.67,21.36 -81.02,45.5 -172.03,72.5 -90.98,27.03 -198.17,54.53 -321.49,82.5 -123.67,27.69 -246.17,53.51 -367.5,77.5 -121.68,23.67 -224.84,42.69 -309.49,57.03 -85,14.65 -134.49,22.15 -148.51,22.5 -13.99,-0.35 -63.48,-7.85 -148.48,-22.5 -84.69,-14.34 -187.85,-33.36 -309.53,-57.03 -121.33,-23.99 -243.829,-49.81 -367.501,-77.5 -123.321,-27.97 -230.469,-55.47 -321.489,-82.5 -91.011,-27.31 -148.32,-51.49 -171.992,-72.5 -18.008,-19.34 -28.16,-48.64 -30.508,-87.97 -2.339,-39.69 0.508,-85 8.52,-136.02 l 82.969,8.01 L 285,1678.98 231.988,1652.5 175,1624.49 h 102.969" /><path
         id="path38"
         style="fill:#000000;fill-opacity:1;fill-rule:evenodd;stroke:none"
         d="m 506.68,1286.84 1.91,-1.14 c 0,-2.85 -1.789,-12.69 -5.391,-29.57 -3.59,-16.87 -6.168,-25.66 -7.73,-26.44 -18.789,-11.33 -49.571,-16.99 -92.309,-16.99 -33.98,0 -62.93,12.5 -86.711,37.46 -23.828,24.96 -35.75,54.72 -35.75,89.22 0,36.56 12.231,67.92 36.68,94.06 24.5,26.13 54.5,39.22 90,39.22 30.391,0 61.68,-3.21 93.871,-9.65 -0.512,-34.53 -0.738,-53.05 -0.738,-55.63 0,-3.86 -2.742,-5.82 -8.133,-5.82 -2.578,0 -4.258,0.67 -5.039,1.96 -0.738,3.36 -1.719,6.75 -2.891,10.23 -1.129,3.48 -3.59,7.97 -7.34,13.52 -3.711,5.54 -8.238,10.31 -13.519,14.29 -5.27,3.99 -12.731,7.46 -22.379,10.43 -9.652,2.97 -20.551,4.46 -32.66,4.46 -25.231,0 -46.711,-11.18 -64.492,-33.44 -17.77,-22.27 -26.68,-47.42 -26.68,-75.51 0,-20.86 3.641,-40.04 10.82,-57.54 7.231,-17.54 18.641,-32.03 34.18,-43.48 15.59,-11.44 34.07,-17.18 55.43,-17.18 25.511,0 45.203,7.46 59.101,22.42 3.641,3.83 6.801,8.94 9.5,15.23 2.692,6.33 4.762,11.6 6.168,15.86 1.402,4.22 2.5,6.37 3.281,6.37 1.563,0 3.403,-0.27 5.59,-0.78 2.18,-0.51 3.942,-1.02 5.231,-1.56 z m 104.3,81.91 c -13.679,0 -24.808,-6.25 -33.441,-18.75 -8.59,-12.46 -12.93,-27.73 -12.93,-45.78 0,-21.1 5.469,-39.18 16.411,-54.26 10.968,-15.08 23.781,-22.58 38.429,-22.58 13.672,0 24.891,6.41 33.641,19.3 8.75,12.89 13.121,28.32 13.121,46.37 0,20.86 -5.551,38.67 -16.602,53.47 -11.089,14.81 -23.949,22.23 -38.629,22.23 z m 4.25,15.08 c 23.168,0 43.008,-8.4 59.461,-25.12 16.481,-16.76 24.719,-36.83 24.719,-60.27 0,-23.67 -8.039,-43.99 -24.14,-60.82 -16.09,-16.88 -35.86,-25.32 -59.29,-25.32 -23.441,0 -43.359,8.44 -59.851,25.32 -16.481,16.83 -24.719,37.15 -24.719,60.82 0,23.94 7.969,44.18 23.942,60.66 15.976,16.49 35.937,24.73 59.878,24.73 z M 747.699,1259.8 v 167.27 c 0,8.75 -0.75,16.99 -2.308,24.73 -1.289,4.1 -7.852,6.17 -19.692,6.17 h -3.469 c -1.57,0 -2.351,1.41 -2.351,4.26 0,4.1 0.781,6.17 2.351,6.17 7.731,0.78 14.879,1.8 21.442,3.08 6.558,1.29 11.719,2.58 15.43,3.87 3.75,1.29 6.918,2.5 9.449,3.67 2.578,1.18 4.539,2.11 5.828,2.89 l 1.519,1.18 h 0.782 c 1.019,0 2.07,-0.71 3.09,-2.11 1.05,-1.45 1.679,-2.78 1.949,-4.07 -2.848,-8.24 -4.258,-19.45 -4.258,-33.63 v -176.13 c 0,-14.92 1.019,-26.41 3.09,-34.38 0.5,-1.79 3.859,-3.55 10.039,-5.19 6.172,-1.68 10.539,-2.54 13.121,-2.54 0.777,0 1.289,-1.52 1.559,-4.61 0.242,-3.13 0.121,-5.31 -0.391,-6.6 -25.738,1.29 -39.527,1.95 -41.328,1.95 -1.563,0 -15.582,-0.66 -42.102,-1.95 -1.019,1.05 -1.57,3.16 -1.57,6.4 0,3.21 0.551,4.81 1.57,4.81 3.082,0 7.653,0.86 13.711,2.54 6.051,1.64 9.328,3.4 9.84,5.19 1.801,7.46 2.699,16.49 2.699,27.03 z m 150.27,109.34 c -13.399,0 -23.629,-5.74 -30.699,-17.19 -7.071,-11.48 -10.629,-20.93 -10.629,-28.4 0,-1.79 0.781,-2.69 2.308,-2.69 h 75.352 c 1.289,0 1.91,1.29 1.91,3.87 0,8.2 -3.481,17.69 -10.43,28.36 -6.953,10.7 -16.211,16.05 -27.812,16.05 z m 3.871,14.3 c 11.832,0 22.262,-2.27 31.281,-6.76 9.027,-4.53 15.899,-10.31 20.668,-17.38 4.762,-7.11 8.242,-14.3 10.43,-21.64 2.191,-7.35 3.281,-14.61 3.281,-21.84 0,-5.16 -0.781,-8.32 -2.301,-9.45 -1.57,-1.17 -4.539,-1.76 -8.91,-1.76 h -97.34 c -2.039,0 -3.09,-0.63 -3.09,-1.91 0,-16.22 4.922,-31.18 14.692,-44.81 9.801,-13.67 23.937,-20.47 42.5,-20.47 5.39,0 10.539,0.51 15.429,1.53 4.918,1.05 9.098,2.26 12.571,3.67 3.48,1.4 6.449,2.85 8.871,4.26 2.457,1.4 4.566,2.77 6.367,4.06 l 2.731,1.91 c 1.531,0 2.308,-1.68 2.308,-5 0,-2.07 -0.777,-4.37 -2.308,-6.95 -5.149,-7.23 -12.77,-13.71 -22.809,-19.53 -10.039,-5.78 -20.981,-8.67 -32.813,-8.67 -21.41,0 -39.726,8.04 -55.078,24.14 -15.308,16.09 -22.968,35.74 -22.968,58.9 0,27.03 7.269,48.4 21.839,64.1 14.528,15.75 32.77,23.6 54.649,23.6 z m 112.42,101.17 h 5.78 c 3.87,0 6.76,-1.6 8.71,-4.81 1.91,-3.24 2.89,-10 2.89,-20.27 0,-7.73 -1.99,-19.53 -6.02,-35.35 -3.98,-15.86 -6.36,-27.73 -7.14,-35.74 -0.24,-3.87 -2.31,-5.78 -6.18,-5.78 -3.32,0 -5.27,1.68 -5.78,5 -1.29,12.11 -3.79,26.01 -7.54,41.72 -3.75,15.74 -5.582,26.01 -5.582,30.89 0,4.14 2.301,9.22 6.952,15.28 4.61,6.05 9.26,9.06 13.91,9.06 z m 108.51,-100.78 c 5.67,0 12.82,-0.74 21.45,-2.15 8.63,-1.41 14.61,-2.38 17.97,-2.89 2.58,-11.84 4.14,-25 4.65,-39.41 0,-1.29 -1.68,-1.92 -5.04,-1.92 -3.6,0 -5.55,0.9 -5.78,2.7 -1.29,7.22 -4.97,14.02 -11.02,20.46 -6.05,6.45 -12.93,9.65 -20.66,9.65 -18.56,0 -27.82,-7.57 -27.82,-22.77 0,-3.87 0.51,-7.27 1.57,-10.23 1.01,-2.97 3,-5.79 5.97,-8.52 2.97,-2.7 5.2,-4.61 6.76,-5.78 1.52,-1.17 4.96,-3.2 10.23,-6.17 5.28,-2.97 8.56,-4.85 9.85,-5.63 1.01,-0.51 4.06,-2.22 9.06,-5.19 5.04,-2.97 8.59,-5.08 10.63,-6.37 2.07,-1.29 5.11,-3.48 9.1,-6.56 3.98,-3.09 6.87,-5.86 8.67,-8.32 1.8,-2.46 3.55,-5.55 5.23,-9.26 1.68,-3.75 2.5,-7.54 2.5,-11.41 0,-15.19 -5.93,-27.89 -17.77,-38.04 -11.84,-10.16 -25.74,-15.28 -41.72,-15.28 -5.39,0 -10.35,0.35 -14.88,0.98 -4.49,0.66 -9.84,1.76 -16.02,3.28 -6.17,1.56 -10.93,2.58 -14.29,3.09 -1.53,4.14 -3.01,10.58 -4.46,19.33 -1.4,8.75 -2.11,15.7 -2.11,20.86 2.07,1.52 3.6,2.31 4.65,2.31 3.87,0 5.9,-0.79 6.17,-2.31 1.57,-7.73 6.37,-15.27 14.5,-22.62 8.08,-7.34 16.91,-11.01 26.44,-11.01 8.24,0 15,2.26 20.28,6.76 5.27,4.53 7.92,11.01 7.92,19.53 0,4.37 -0.82,8.44 -2.5,12.15 -1.68,3.75 -4.37,7.11 -8.12,10.03 -3.71,2.97 -7.19,5.43 -10.43,7.35 -3.2,1.95 -7.77,4.45 -13.71,7.54 -5.94,3.08 -10.31,5.54 -13.13,7.34 -20.07,11.6 -30.11,25.35 -30.11,41.33 0,13.91 5.58,25.23 16.79,33.98 11.18,8.75 24.26,13.17 39.18,13.17 z m 215.55,84.57 c 5.16,0 10.2,0.12 15.08,0.39 4.88,0.27 10.15,0.59 15.82,0.98 5.66,0.39 10.31,0.7 13.9,0.93 0.55,-1.52 0.79,-3.47 0.79,-5.78 0,-3.59 -0.51,-5.39 -1.53,-5.39 -2.58,0 -7.22,-0.9 -13.9,-2.73 -6.72,-1.8 -10.32,-3.6 -10.82,-5.39 -2.35,-9.03 -3.48,-20.98 -3.48,-35.94 v -145.63 c 0,-13.63 1.13,-24.96 3.48,-33.98 0.78,-2.58 9.53,-3.87 26.25,-3.87 h 18.55 c 23.95,0 40.16,2.19 48.67,6.56 3.87,2.07 8.17,6.65 12.93,13.72 4.77,7.11 8.56,15.54 11.41,25.31 0.51,1.56 2.3,2.3 5.39,2.3 4.92,0 8.12,-0.74 9.65,-2.3 -1.25,-3.36 -3.28,-8.67 -5.98,-16.02 -2.69,-7.34 -4.8,-13.28 -6.37,-17.77 -1.56,-4.53 -3.2,-9.73 -5.04,-15.67 -1.79,-5.89 -2.92,-10.82 -3.47,-14.64 -13.36,0 -34.3,0.35 -62.74,1.13 -28.47,0.78 -51.44,1.17 -68.98,1.17 l -46.72,-1.17 c -0.78,0.78 -1.17,2.85 -1.17,6.17 0,3.36 0.39,5.04 1.17,5.04 3.59,0 8.63,0.78 15.08,2.3 6.41,1.57 10.27,3.48 11.56,5.83 1.8,3.08 2.7,15.19 2.7,36.28 v 146.02 c 0,16.48 -0.9,28.2 -2.7,35.16 -0.78,2.07 -4.41,3.94 -11.01,5.58 -6.57,1.68 -11.53,2.54 -14.85,2.54 -1.05,0 -1.56,1.68 -1.56,5 0,3.09 0.51,5.16 1.56,6.17 3.32,-0.23 10.16,-0.7 20.47,-1.32 10.27,-0.67 18.91,-0.98 25.86,-0.98 z m 211.29,-228.48 c 4.41,-3.75 10.08,-5.58 17.03,-5.58 6.95,0 13.63,2.11 20.08,6.36 6.44,4.26 9.65,8.56 9.65,12.93 v 39.81 c -2.07,-1.06 -7.07,-2.85 -15.08,-5.43 -7.97,-2.58 -14.22,-4.81 -18.71,-6.76 -4.53,-1.91 -8.91,-5.16 -13.13,-9.65 -4.25,-4.53 -6.4,-9.72 -6.4,-15.66 0,-6.96 2.18,-12.27 6.56,-16.02 z m 36.33,143.52 c 14.18,0 24.33,-3.44 30.51,-10.24 6.17,-6.83 9.29,-17.85 9.29,-33.04 v -89.22 c 0,-5.43 1.41,-9.92 4.22,-13.52 2.85,-3.63 6.72,-5.43 11.6,-5.43 3.6,0 8.13,1.8 13.52,5.43 1.01,0 1.56,-1.05 1.56,-3.08 0,-3.36 -0.66,-6.06 -1.95,-8.13 -10.55,-9.02 -19.57,-13.51 -27.03,-13.51 -5.94,0 -11.61,2.42 -17,7.34 -5.43,4.88 -9.14,10.04 -11.21,15.43 -0.23,0 -1.21,-0.82 -2.89,-2.5 -1.68,-1.68 -3.94,-3.59 -6.76,-5.78 -2.85,-2.19 -6.13,-4.46 -9.84,-6.76 -3.75,-2.34 -8.12,-4.26 -13.12,-5.82 -5.04,-1.52 -10.12,-2.31 -15.28,-2.31 -11.83,0 -21.64,3.17 -29.37,9.46 -7.7,6.33 -11.57,15.78 -11.57,28.4 0,5.66 1.41,11.01 4.22,16.01 2.86,5.04 6.21,9.14 10.08,12.38 3.83,3.21 9.14,6.49 15.82,9.85 6.68,3.36 12.42,5.86 17.19,7.54 4.77,1.68 11.02,3.79 18.75,6.36 7.7,2.58 13.12,4.5 16.21,5.79 2.31,0.78 3.48,2.73 3.48,5.82 v 28.94 c 0,8.24 -2.58,14.61 -7.74,19.14 -5.15,4.49 -11.33,6.76 -18.51,6.76 -7.74,0 -14.18,-2.66 -19.34,-7.93 -5.16,-5.27 -7.73,-12.15 -7.73,-20.66 0,-9.03 -5.28,-13.52 -15.82,-13.52 -7.23,0 -12.23,2.46 -15.08,7.34 0,11.06 8.12,22.07 24.33,33.01 16.25,10.98 32.7,16.45 49.46,16.45 z m 313.67,-25.51 c 0,9.02 -8.52,13.52 -25.51,13.52 h -1.56 c -1.02,0 -1.52,1.6 -1.52,4.84 0,3.2 0.5,5.31 1.52,6.37 3.87,-0.28 8.2,-0.51 12.97,-0.78 4.76,-0.28 9.14,-0.51 13.12,-0.79 3.99,-0.23 8.32,-0.39 12.93,-0.39 4.38,0 8.21,0.16 11.41,0.39 3.2,0.28 6.87,0.51 11.01,0.79 4.11,0.27 8.09,0.5 11.96,0.78 0.51,-1.57 0.78,-3.48 0.78,-5.78 0,-3.64 -0.63,-5.43 -1.92,-5.43 -3.35,0 -7.85,-1.1 -13.51,-3.29 -5.7,-2.18 -9.41,-5.74 -11.21,-10.62 l -50.63,-138.28 c -2.03,-5.67 -5.66,-8.52 -10.82,-8.52 -2.54,0 -4.1,0.55 -4.61,1.56 l -47.54,113.56 -38.98,-106.6 c -0.27,-0.78 -0.78,-1.76 -1.56,-2.89 -0.78,-1.17 -1.99,-2.39 -3.67,-3.67 -1.68,-1.29 -3.4,-1.96 -5.2,-1.96 -2.58,0 -4.14,0.55 -4.65,1.56 -6.17,13.91 -13.2,30.59 -21.05,50.04 -7.85,19.42 -15.24,36.96 -22.19,52.5 -6.95,15.59 -15.08,31.64 -24.34,48.13 -3.36,5.66 -10.31,8.48 -20.86,8.48 -1.05,0 -1.56,1.67 -1.56,5.03 0,3.09 0.51,5.12 1.56,6.18 3.83,-0.28 8.09,-0.51 12.74,-0.78 4.65,-0.28 8.87,-0.51 12.73,-0.79 3.87,-0.23 8.13,-0.39 12.78,-0.39 l 38.59,1.96 c 0.55,-1.06 0.74,-3.17 0.59,-6.37 -0.12,-3.24 -0.59,-4.84 -1.33,-4.84 -12.89,0 -19.34,-2.97 -19.34,-8.87 0,-0.78 1.6,-4.65 4.85,-11.6 3.2,-6.96 8.82,-18.99 16.79,-36.14 7.97,-17.11 16.1,-34.96 24.34,-53.47 4.37,12.61 9.26,26.52 14.69,41.72 5.39,15.19 9.18,26.01 11.36,32.42 2.19,6.44 3.28,10.19 3.28,11.21 0,1.29 -0.54,3.36 -1.71,6.17 -1.18,2.85 -2.39,5.31 -3.68,7.34 l -1.91,3.48 c -1.56,2.34 -4.02,4.26 -7.34,5.82 -2.58,1.29 -6.72,1.92 -12.39,1.92 -1.01,0 -1.52,1.6 -1.52,4.84 0,3.2 0.51,5.31 1.52,6.37 3.87,-0.28 8.05,-0.51 12.58,-0.78 4.49,-0.28 8.6,-0.51 12.35,-0.79 3.75,-0.23 7.93,-0.39 12.53,-0.39 4.42,0 8.44,0.16 12.19,0.39 3.75,0.28 8.05,0.51 12.93,0.79 4.88,0.27 9.14,0.5 12.78,0.78 0.5,-1.57 0.74,-3.75 0.74,-6.57 0,-2.85 -0.39,-4.37 -1.14,-4.64 -12.38,0 -18.55,-5 -18.55,-15.08 0,-5.39 14.18,-37.07 42.5,-95 3.87,11.83 8.75,26.13 14.69,42.85 5.9,16.76 10.23,29.18 12.93,37.3 2.69,8.09 4.06,13.56 4.06,16.41 z m 167.23,26.25 c 18.04,0 30.66,-6.41 37.89,-19.3 7.18,-12.89 10.78,-33.75 10.78,-62.58 v -35.15 c 0,-14.92 1.05,-26.41 3.12,-34.38 0.51,-1.79 3.83,-3.55 10.04,-5.19 6.17,-1.68 10.55,-2.54 13.13,-2.54 0.78,0 1.29,-1.52 1.52,-4.61 0.27,-3.13 0.16,-5.31 -0.35,-6.6 -25.78,1.29 -39.53,1.95 -41.37,1.95 -0.51,0 -14.02,-0.66 -40.55,-1.95 -1.01,1.05 -1.52,3.16 -1.52,6.4 0,3.21 0.51,4.81 1.52,4.81 3.09,0 7.43,0.86 12.93,2.54 5.55,1.64 8.6,3.4 9.11,5.19 1.79,7.46 2.69,16.49 2.69,27.03 v 38.64 c 0,23.94 -3.08,40.31 -9.26,49.06 -6.21,8.75 -16.25,13.12 -30.15,13.12 -8.25,0 -16.14,-3 -23.75,-9.06 -7.58,-6.05 -11.41,-11.52 -11.41,-16.4 v -68.01 c 0,-14.92 1.06,-26.41 3.13,-34.38 0.5,-1.79 3.82,-3.55 10.04,-5.19 6.17,-1.68 10.54,-2.54 13.12,-2.54 0.78,0 1.29,-1.52 1.52,-4.61 0.28,-3.13 0.16,-5.31 -0.35,-6.6 -25.78,1.29 -39.53,1.95 -41.37,1.95 -1.52,0 -15.54,-0.66 -42.07,-1.95 -1.05,1.05 -1.56,3.16 -1.56,6.4 0,3.21 0.51,4.81 1.56,4.81 3.09,0 7.66,0.86 13.72,2.54 6.05,1.64 9.33,3.4 9.84,5.19 1.8,7.46 2.69,16.49 2.69,27.03 v 73.01 c 0,10.04 -1.79,16.99 -5.39,20.86 -2.57,3.09 -5.74,5.24 -9.49,6.37 -3.71,1.17 -6.8,1.76 -9.26,1.76 -2.46,0 -3.67,0.23 -3.67,0.78 0,6.17 0.78,9.37 2.31,9.65 27.3,4.1 45.07,7.46 53.32,10.04 0.27,0 0.66,0.07 1.17,0.19 0.51,0.12 0.74,0.2 0.74,0.2 1.06,0 1.68,-1.1 1.95,-3.28 0.28,-2.19 0.28,-3.79 0,-4.85 -1.01,-7.19 -1.56,-12.34 -1.56,-15.43 0,-1.05 0.28,-1.56 0.78,-1.56 0.28,0 0.67,0.27 1.17,0.78 5.9,6.17 13.95,12.03 24.15,17.58 10.15,5.55 19.88,8.28 29.14,8.28 z m 416.79,-97.34 1.96,-1.14 c 0,-2.85 -1.8,-12.69 -5.43,-29.57 -3.6,-16.87 -6.18,-25.66 -7.7,-26.44 -18.83,-11.33 -49.57,-16.99 -92.34,-16.99 -33.99,0 -62.89,12.5 -86.72,37.46 -23.83,24.96 -35.74,54.72 -35.74,89.22 0,36.56 12.26,67.92 36.72,94.06 24.45,26.13 54.45,39.22 90,39.22 30.39,0 61.67,-3.21 93.86,-9.65 -0.51,-34.53 -0.78,-53.05 -0.78,-55.63 0,-3.86 -2.69,-5.82 -8.08,-5.82 -2.58,0 -4.26,0.67 -5.04,1.96 -0.79,3.36 -1.76,6.75 -2.89,10.23 -1.18,3.48 -3.6,7.97 -7.35,13.52 -3.75,5.54 -8.24,10.31 -13.51,14.29 -5.28,3.99 -12.78,7.46 -22.43,10.43 -9.64,2.97 -20.5,4.46 -32.61,4.46 -25.24,0 -46.76,-11.18 -64.53,-33.44 -17.78,-22.27 -26.64,-47.42 -26.64,-75.51 0,-20.86 3.59,-40.04 10.82,-57.54 7.18,-17.54 18.59,-32.03 34.18,-43.48 15.58,-11.44 34.06,-17.18 55.42,-17.18 25.51,0 45.2,7.46 59.11,22.42 3.59,3.83 6.75,8.94 9.45,15.23 2.69,6.33 4.76,11.6 6.17,15.86 1.45,4.22 2.54,6.37 3.32,6.37 1.53,0 3.4,-0.27 5.59,-0.78 2.18,-0.51 3.9,-1.02 5.19,-1.56 z m 64.53,-46.92 c 4.38,-3.75 10.04,-5.58 17,-5.58 6.95,0 13.63,2.11 20.07,6.36 6.45,4.26 9.65,8.56 9.65,12.93 v 39.81 c -2.03,-1.06 -7.07,-2.85 -15.04,-5.43 -8,-2.58 -14.25,-4.81 -18.75,-6.76 -4.49,-1.91 -8.86,-5.16 -13.12,-9.65 -4.26,-4.53 -6.37,-9.72 -6.37,-15.66 0,-6.96 2.19,-12.27 6.56,-16.02 z m 36.29,143.52 c 14.18,0 24.34,-3.44 30.55,-10.24 6.17,-6.83 9.26,-17.85 9.26,-33.04 v -89.22 c 0,-5.43 1.4,-9.92 4.26,-13.52 2.81,-3.63 6.68,-5.43 11.56,-5.43 3.63,0 8.12,1.8 13.51,5.43 1.06,0 1.57,-1.05 1.57,-3.08 0,-3.36 -0.63,-6.06 -1.92,-8.13 -10.58,-9.02 -19.57,-13.51 -27.07,-13.51 -5.9,0 -11.56,2.42 -16.99,7.34 -5.39,4.88 -9.14,10.04 -11.21,15.43 -0.24,0 -1.21,-0.82 -2.89,-2.5 -1.68,-1.68 -3.91,-3.59 -6.76,-5.78 -2.81,-2.19 -6.09,-4.46 -9.84,-6.76 -3.75,-2.34 -8.13,-4.26 -13.13,-5.82 -5.04,-1.52 -10.12,-2.31 -15.27,-2.31 -11.84,0 -21.64,3.17 -29.34,9.46 -7.73,6.33 -11.6,15.78 -11.6,28.4 0,5.66 1.41,11.01 4.26,16.01 2.81,5.04 6.17,9.14 10.04,12.38 3.86,3.21 9.14,6.49 15.82,9.85 6.72,3.36 12.42,5.86 17.19,7.54 4.76,1.68 11.01,3.79 18.75,6.36 7.73,2.58 13.12,4.5 16.21,5.79 2.34,0.78 3.47,2.73 3.47,5.82 v 28.94 c 0,8.24 -2.58,14.61 -7.69,19.14 -5.16,4.49 -11.33,6.76 -18.56,6.76 -7.73,0 -14.18,-2.66 -19.33,-7.93 -5.12,-5.27 -7.7,-12.15 -7.7,-20.66 0,-9.03 -5.27,-13.52 -15.86,-13.52 -7.19,0 -12.22,2.46 -15.04,7.34 0,11.06 8.09,22.07 24.34,33.01 16.21,10.98 32.69,16.45 49.41,16.45 z m 186.21,0.39 c 15.2,0 25.24,-3.75 30.12,-11.21 0,-9.03 -1.4,-15.59 -4.26,-19.73 -2.81,-4.1 -6.29,-6.17 -10.43,-6.17 -4.61,0 -8.86,2.19 -12.73,6.56 -3.87,4.38 -9.14,6.56 -15.82,6.56 -8.01,0 -14.96,-3.71 -20.86,-11.17 -5.94,-7.5 -8.91,-15.35 -8.91,-23.59 v -57.93 c 0,-14.92 1.02,-26.41 3.09,-34.38 0.51,-1.79 3.94,-3.55 10.23,-5.19 6.33,-1.68 10.75,-2.54 13.32,-2.54 0.79,0 1.29,-1.52 1.57,-4.61 0.27,-3.13 0.11,-5.31 -0.39,-6.6 -25.75,1.29 -39.65,1.95 -41.72,1.95 -1.53,0 -15.59,-0.66 -42.11,-1.95 -1.02,1.05 -1.53,3.16 -1.53,6.4 0,3.21 0.51,4.81 1.53,4.81 3.08,0 7.65,0.86 13.71,2.54 6.05,1.64 9.33,3.4 9.84,5.19 1.84,7.46 2.74,16.49 2.74,27.03 v 73.01 c 0,10.04 -1.8,16.99 -5.43,20.86 -2.58,3.09 -5.71,5.24 -9.46,6.37 -3.75,1.17 -6.83,1.76 -9.25,1.76 -2.46,0 -3.68,0.23 -3.68,0.78 0,6.17 0.75,9.37 2.31,9.65 27.3,4.1 45.08,7.46 53.32,10.04 0.23,0 0.62,0.07 1.13,0.19 0.51,0.12 0.78,0.2 0.78,0.2 1.02,0 1.68,-1.1 1.96,-3.28 0.23,-2.19 0.23,-3.79 0,-4.85 l -2.35,-19.3 c 4.65,6.96 11.02,13.44 19.14,19.5 8.09,6.05 16.14,9.1 24.14,9.1 z m 120.51,-14.69 c -13.4,0 -23.63,-5.74 -30.7,-17.19 -7.07,-11.48 -10.63,-20.93 -10.63,-28.4 0,-1.79 0.78,-2.69 2.31,-2.69 h 75.35 c 1.29,0 1.91,1.29 1.91,3.87 0,8.2 -3.47,17.69 -10.43,28.36 -6.95,10.7 -16.21,16.05 -27.81,16.05 z m 3.87,14.3 c 11.84,0 22.26,-2.27 31.29,-6.76 9.02,-4.53 15.9,-10.31 20.66,-17.38 4.77,-7.11 8.24,-14.3 10.43,-21.64 2.19,-7.35 3.28,-14.61 3.28,-21.84 0,-5.16 -0.78,-8.32 -2.3,-9.45 -1.56,-1.17 -4.53,-1.76 -8.91,-1.76 h -97.34 c -2.03,0 -3.09,-0.63 -3.09,-1.91 0,-16.22 4.89,-31.18 14.69,-44.81 9.77,-13.67 23.95,-20.47 42.5,-20.47 5.39,0 10.55,0.51 15.43,1.53 4.88,1.05 9.1,2.26 12.58,3.67 3.47,1.4 6.4,2.85 8.86,4.26 2.47,1.4 4.58,2.77 6.37,4.06 l 2.7,1.91 c 1.56,0 2.34,-1.68 2.34,-5 0,-2.07 -0.78,-4.37 -2.34,-6.95 -5.12,-7.23 -12.74,-13.71 -22.78,-19.53 -10.03,-5.78 -20.97,-8.67 -32.85,-8.67 -21.36,0 -39.68,8.04 -55.04,24.14 -15.31,16.09 -22.97,35.74 -22.97,58.9 0,27.03 7.27,48.4 21.84,64.1 14.53,15.75 32.77,23.6 54.65,23.6 z" /><path
         id="path40"
         style="fill:#000000;fill-opacity:1;fill-rule:evenodd;stroke:none"
         d="m 988.051,1083.05 c -14.852,0 -26.723,-6.53 -35.629,-19.57 -8.902,-13.05 -13.363,-28.01 -13.363,-44.89 0,-19.531 5.082,-36.789 15.242,-51.789 10.148,-15 23.82,-22.5 41.008,-22.5 15.001,0 26.921,6.519 35.741,19.57 8.83,13.039 13.25,28.078 13.25,45.109 0,19.54 -5.08,36.76 -15.24,51.68 -10.15,14.93 -23.83,22.39 -41.009,22.39 z m 80.619,-166.171 c 2.81,0 5.39,0.152 7.74,0.461 2.34,0.32 4.21,0.629 5.62,0.941 1.41,0.309 2.27,0.469 2.58,0.469 1.87,0 2.81,-1.559 2.81,-4.691 v -1.168 c -10.31,-5.469 -23.44,-8.2 -39.37,-8.2 -7.5,0 -15.67,2.028 -24.5,6.09 -8.82,4.059 -18.12,8.867 -27.89,14.418 -9.762,5.539 -17.851,9.332 -24.25,11.36 -5.629,1.722 -11.41,4.613 -17.351,8.671 -5.938,4.071 -11.789,9.219 -17.579,15.469 -5.781,6.25 -10.5,14.031 -14.179,23.321 -3.672,9.3 -5.5,19.1 -5.5,29.42 0,21.87 7.301,40.58 21.91,56.13 14.609,15.55 32.23,23.32 52.848,23.32 20.631,0 38.281,-7.77 52.971,-23.32 14.69,-15.55 22.03,-34.26 22.03,-56.13 0,-19.999 -5.74,-37.03 -17.22,-51.1 -11.49,-14.059 -23.25,-22.262 -35.28,-24.61 4.22,-2.031 10.04,-5.23 17.46,-9.609 7.43,-4.371 13.64,-7.34 18.64,-8.902 5,-1.559 11.17,-2.34 18.51,-2.34 z m 109.45,99.601 v -46.871 c 0,-6.718 0.55,-12.66 1.65,-17.808 0.31,-1.102 1.17,-1.961 2.57,-2.582 1.41,-0.629 2.89,-1.02 4.46,-1.168 1.56,-0.16 3.12,-0.242 4.68,-0.242 l 2.11,-0.231 c 0.47,-0.156 0.71,-1.019 0.71,-2.578 0,-0.469 -0.2,-1.211 -0.59,-2.23 -0.39,-1.008 -0.82,-1.52 -1.29,-1.52 -2.34,-0.16 -4.96,-0.469 -7.85,-0.941 -2.89,-0.469 -5.59,-1.008 -8.09,-1.637 -2.5,-0.621 -4.84,-1.25 -7.03,-1.871 -2.18,-0.629 -3.9,-1.18 -5.15,-1.641 l -2.11,-0.469 c -1.25,0 -1.88,1.25 -1.88,3.75 v 11.95 l -0.47,1.168 c -10.31,-11.09 -20.54,-16.637 -30.7,-16.637 -5.78,0 -10.74,1.449 -14.88,4.34 -4.14,2.886 -7.19,6.718 -9.14,11.476 -1.96,4.774 -3.32,9.383 -4.1,13.832 -0.79,4.45 -1.18,9.102 -1.18,13.95 v 29.53 c 0,6.09 -1.09,10.31 -3.28,12.65 -1.56,1.88 -3.47,3.17 -5.74,3.87 -2.27,0.7 -4.14,1.05 -5.62,1.05 -1.49,0 -2.23,0.16 -2.23,0.47 0,3.75 0.47,5.71 1.41,5.86 16.56,2.5 27.34,4.53 32.34,6.1 0.16,0 0.39,0.04 0.7,0.11 0.31,0.08 0.47,0.12 0.47,0.12 0.63,0 1.02,-0.66 1.17,-1.99 0.16,-1.33 0.16,-2.31 0,-2.93 -0.94,-7.5 -1.4,-13.28 -1.4,-17.34 v -31.641 c 0,-12.039 1.79,-20.899 5.39,-26.609 3.59,-5.7 9.45,-8.551 17.57,-8.551 4.69,0 9.15,1.832 13.36,5.511 4.22,3.668 6.33,6.829 6.33,9.489 v 43.831 c 0,6.09 -1.09,10.31 -3.28,12.65 -1.56,1.88 -3.48,3.17 -5.74,3.87 -2.27,0.7 -4.14,1.05 -5.63,1.05 -1.48,0 -2.22,0.16 -2.22,0.47 0,3.75 0.47,5.71 1.4,5.86 16.57,2.5 27.35,4.53 32.35,6.1 0.15,0 0.39,0.04 0.7,0.11 0.31,0.08 0.47,0.12 0.47,0.12 0.62,0 1.02,-0.66 1.17,-1.99 0.16,-1.33 0.16,-2.31 0,-2.93 -0.94,-7.5 -1.41,-13.13 -1.41,-16.88 z m 52.04,-64.8 c 2.65,-2.27 6.09,-3.399 10.31,-3.399 4.22,0 8.28,1.289 12.19,3.867 3.9,2.582 5.86,5.192 5.86,7.852 v 24.141 c -1.25,-0.621 -4.3,-1.719 -9.14,-3.282 -4.85,-1.558 -8.64,-2.929 -11.37,-4.097 -2.74,-1.172 -5.39,-3.133 -7.97,-5.864 -2.58,-2.738 -3.87,-5.898 -3.87,-9.488 0,-4.219 1.33,-7.461 3.99,-9.73 z m 22.03,87.07 c 8.59,0 14.76,-2.07 18.51,-6.21 3.75,-4.14 5.63,-10.82 5.63,-20.04 v -54.141 c 0,-3.281 0.86,-6.019 2.58,-8.199 1.71,-2.191 4.06,-3.281 7.03,-3.281 2.18,0 4.92,1.09 8.2,3.281 0.63,0 0.94,-0.629 0.94,-1.879 0,-2.031 -0.39,-3.672 -1.17,-4.922 -6.41,-5.468 -11.88,-8.199 -16.41,-8.199 -3.59,0 -7.03,1.481 -10.31,4.449 -3.28,2.969 -5.55,6.09 -6.8,9.371 -0.16,0 -0.74,-0.5 -1.76,-1.519 -1.01,-1.012 -2.38,-2.191 -4.1,-3.512 -1.72,-1.328 -3.71,-2.699 -5.98,-4.109 -2.26,-1.399 -4.92,-2.57 -7.96,-3.512 -3.05,-0.937 -6.14,-1.406 -9.26,-1.406 -7.19,0 -13.13,1.918 -17.81,5.738 -4.69,3.828 -7.04,9.57 -7.04,17.231 0,3.437 0.86,6.679 2.58,9.73 1.72,3.039 3.75,5.539 6.1,7.5 2.34,1.949 5.54,3.938 9.61,5.969 4.06,2.031 7.53,3.558 10.43,4.57 2.89,1.02 6.68,2.309 11.36,3.871 4.69,1.559 7.97,2.739 9.85,3.52 1.4,0.469 2.11,1.64 2.11,3.508 v 17.581 c 0,5 -1.57,8.87 -4.69,11.6 -3.13,2.74 -6.88,4.1 -11.25,4.1 -4.69,0 -8.6,-1.6 -11.72,-4.8 -3.13,-3.2 -4.69,-7.38 -4.69,-12.54 0,-5.47 -3.2,-8.2 -9.61,-8.2 -4.37,0 -7.42,1.48 -9.14,4.45 0,6.72 4.92,13.4 14.77,20.04 9.84,6.64 19.84,9.96 30,9.96 z m 64.69,-75 v 101.48 c 0,5.32 -0.47,10.32 -1.41,15 -0.78,2.5 -4.77,3.75 -11.95,3.75 h -2.11 c -0.94,0 -1.41,0.86 -1.41,2.58 0,2.5 0.47,3.75 1.41,3.75 4.68,0.47 9.02,1.1 13,1.88 3.99,0.78 7.11,1.56 9.38,2.34 2.26,0.78 4.18,1.52 5.74,2.23 1.56,0.7 2.74,1.29 3.52,1.76 l 0.93,0.7 h 0.47 c 0.63,0 1.25,-0.43 1.88,-1.29 0.62,-0.86 1.01,-1.68 1.17,-2.46 -1.72,-5 -2.58,-11.8 -2.58,-20.39 V 968.199 c 0,-9.058 0.63,-16.008 1.88,-20.859 0.31,-1.09 2.34,-2.141 6.09,-3.16 3.75,-1.02 6.41,-1.52 7.97,-1.52 0.47,0 0.78,-0.941 0.94,-2.82 0.15,-1.871 0.08,-3.199 -0.24,-3.981 -15.62,0.782 -23.98,1.172 -25.08,1.172 -0.93,0 -9.45,-0.39 -25.54,-1.172 -0.63,0.621 -0.94,1.911 -0.94,3.871 0,1.95 0.31,2.93 0.94,2.93 1.87,0 4.65,0.5 8.32,1.52 3.67,1.019 5.66,2.07 5.97,3.16 1.1,4.539 1.65,10 1.65,16.41 z m 61.75,103.48 c -2.26,2.26 -3.4,5.04 -3.4,8.32 0,3.28 1.14,6.05 3.4,8.32 2.27,2.26 5.04,3.4 8.32,3.4 3.28,0 6.06,-1.14 8.32,-3.4 2.27,-2.27 3.4,-5.04 3.4,-8.32 0,-3.28 -1.13,-6.06 -3.4,-8.32 -2.26,-2.27 -5.04,-3.4 -8.32,-3.4 -3.28,0 -6.05,1.13 -8.32,3.4 z m 19.1,-50.75 v -48.281 c 0,-9.058 0.63,-16.008 1.88,-20.859 0.31,-1.09 2.34,-2.141 6.09,-3.16 3.75,-1.02 6.41,-1.52 7.97,-1.52 0.47,0 0.78,-0.941 0.94,-2.82 0.16,-1.871 0.08,-3.199 -0.23,-3.981 -15.63,0.782 -23.99,1.172 -25.08,1.172 -1.1,0 -9.61,-0.39 -25.55,-1.172 -0.63,0.621 -0.94,1.911 -0.94,3.871 0,1.95 0.31,2.93 0.94,2.93 1.87,0 4.65,0.5 8.32,1.52 3.67,1.019 5.66,2.07 5.98,3.16 1.09,4.539 1.64,10 1.64,16.41 v 44.3 c 0,6.09 -1.1,10.31 -3.28,12.65 -1.57,1.88 -3.48,3.17 -5.75,3.87 -2.26,0.7 -4.14,1.05 -5.62,1.05 -1.49,0 -2.23,0.16 -2.23,0.47 0,3.75 0.47,5.71 1.41,5.86 16.56,2.5 27.34,4.53 32.34,6.1 l 0.47,0.23 c 0.31,0 0.55,0 0.7,0 0.63,0 1.02,-0.66 1.18,-1.99 0.15,-1.33 0.15,-2.31 0,-2.93 -0.79,-6.25 -1.18,-11.88 -1.18,-16.88 z m 39.38,-51.789 v 59.529 h -13.59 c -0.79,0 -1.18,1.64 -1.18,4.92 0,0.94 0.08,1.48 0.24,1.64 4.53,2.03 9.45,6.17 14.76,12.42 1.72,2.03 3.4,4.34 5.04,6.92 1.64,2.58 3.01,4.8 4.1,6.68 1.1,1.87 1.64,2.89 1.64,3.04 4.69,0 7.04,-0.39 7.04,-1.17 v -23.2 c 4.06,0 10.23,-0.04 18.51,-0.12 8.28,-0.08 12.66,-0.12 13.13,-0.12 1.25,0 1.87,-0.7 1.87,-2.11 0,-2.81 -0.78,-5.78 -2.34,-8.9 h -31.17 v -57.419 c 0,-6.25 1.6,-11.25 4.8,-15 3.2,-3.75 7.38,-5.629 12.54,-5.629 4.69,0 9.53,1.488 14.53,4.449 0.47,0.32 1.17,-0.351 2.11,-1.992 0.94,-1.641 1.33,-2.539 1.17,-2.688 -2.34,-2.5 -5.93,-4.961 -10.78,-7.39 -4.84,-2.422 -9.84,-3.629 -15,-3.629 -7.81,0 -14.33,2.578 -19.57,7.738 -5.23,5.149 -7.85,12.5 -7.85,22.031 z m 81.56,72.419 c 2.66,0 5.12,0.08 7.38,0.23 2.27,0.16 4.85,0.32 7.74,0.47 2.89,0.16 5.43,0.31 7.62,0.47 0.31,-0.94 0.47,-2.11 0.47,-3.51 0,-2.19 -0.32,-3.29 -0.94,-3.29 -1.25,0 -3.32,-0.54 -6.21,-1.64 -2.89,-1.09 -4.5,-2.18 -4.81,-3.28 v -0.47 c 0,-2.81 8.36,-23.2 25.08,-61.168 l 17.81,51.328 c 1.1,3.28 1.64,5.7 1.64,7.27 0,2.34 -1.21,4.25 -3.63,5.74 -2.42,1.48 -5.66,2.22 -9.73,2.22 -0.62,0 -0.93,1.02 -0.93,3.05 0,1.88 0.31,3.13 0.93,3.75 2.03,-0.16 5.08,-0.39 9.14,-0.7 4.07,-0.31 7.97,-0.47 11.72,-0.47 3.44,0 7.19,0.16 11.25,0.47 4.07,0.31 7.11,0.54 9.14,0.7 0.32,-0.94 0.47,-2.11 0.47,-3.51 0,-2.19 -0.31,-3.29 -0.93,-3.29 -2.04,0 -4.81,-0.7 -8.33,-2.1 -3.51,-1.41 -5.82,-3.68 -6.91,-6.8 l -41.95,-113.201 c -3.6,-9.688 -7.66,-16.449 -12.19,-20.277 -4.53,-3.832 -8.67,-5.743 -12.42,-5.743 -3.28,0 -5.7,1.02 -7.27,3.051 -1.56,2.031 -2.34,4.059 -2.34,6.09 0,3.441 1.09,5.941 3.28,7.5 12.97,0 21.56,6.719 25.78,20.16 0.78,2.34 1.72,5.149 2.81,8.43 1.1,3.289 1.96,5.941 2.58,7.969 l -33.51,82.031 c -1.72,3.75 -3.29,6.41 -4.69,7.97 -1.41,1.41 -3.56,2.58 -6.45,3.52 -2.89,0.94 -5.19,1.4 -6.91,1.4 -0.63,0 -0.94,1.02 -0.94,3.05 0,1.88 0.31,3.13 0.94,3.75 16.09,-0.78 24.53,-1.17 25.31,-1.17 z m 147.66,14.3 c 0,12.03 4.61,21.91 13.83,29.64 9.22,7.74 19.92,11.61 32.11,11.61 3.43,0 6.68,-0.2 9.72,-0.59 3.05,-0.39 5.55,-0.82 7.5,-1.29 1.96,-0.47 4.77,-1.21 8.44,-2.23 3.67,-1.01 6.91,-1.83 9.73,-2.46 1.87,-8.28 2.81,-19.45 2.81,-33.51 0,-1.1 -0.78,-1.64 -2.35,-1.64 -3.74,0 -5.78,0.78 -6.09,2.34 -0.78,6.88 -4.1,13.56 -9.96,20.04 -5.86,6.48 -13.01,9.73 -21.45,9.73 -9.37,0 -15.97,-2.35 -19.8,-7.03 -3.83,-4.69 -5.74,-10.47 -5.74,-17.35 0,-2.97 0.54,-5.82 1.64,-8.55 1.09,-2.74 2.19,-5 3.28,-6.8 1.09,-1.8 3.09,-3.87 5.98,-6.21 2.89,-2.34 5,-3.99 6.32,-4.92 1.33,-0.94 3.99,-2.66 7.97,-5.16 3.99,-2.5 6.53,-4.06 7.62,-4.69 0.78,-0.46 3.52,-2.14 8.2,-5.04 4.69,-2.89 7.89,-4.92 9.61,-6.09 1.72,-1.17 4.42,-3.28 8.09,-6.33 3.67,-3.04 6.33,-5.739 7.97,-8.079 1.64,-2.352 3.2,-5.281 4.69,-8.789 1.48,-3.524 2.22,-7.153 2.22,-10.903 0,-12.5 -4.88,-22.769 -14.65,-30.82 -9.76,-8.051 -21.21,-12.07 -34.33,-12.07 -3.75,0 -7.74,0.269 -11.96,0.82 -4.21,0.551 -7.73,1.09 -10.54,1.641 -2.81,0.55 -6.37,1.332 -10.67,2.34 -4.29,1.019 -7.3,1.679 -9.02,2 -3.91,19.21 -5.86,31.64 -5.86,37.261 0,0.938 1.25,1.41 3.75,1.41 2.81,0 4.77,-0.711 5.86,-2.113 5.31,-22.5 18.28,-33.75 38.91,-33.75 7.81,0 14.45,2.344 19.92,7.031 5.47,4.692 8.2,11.332 8.2,19.922 0,3.129 -0.47,6.02 -1.4,8.668 -0.94,2.66 -1.92,4.852 -2.93,6.571 -1.02,1.71 -2.82,3.55 -5.4,5.5 -2.57,1.96 -4.57,3.402 -5.97,4.339 -1.41,0.942 -3.99,2.422 -7.74,4.451 -3.75,2.03 -6.32,3.44 -7.73,4.22 -4.53,2.66 -7.7,4.53 -9.49,5.63 -1.8,1.09 -4.77,3 -8.91,5.74 -4.14,2.73 -7.15,5.15 -9.02,7.26 -1.88,2.11 -4.07,4.69 -6.57,7.74 -2.5,3.05 -4.25,6.29 -5.27,9.72 -1.01,3.44 -1.52,7.04 -1.52,10.79 z m 153.51,-21.33 c -8.12,0 -14.33,-3.48 -18.63,-10.43 -4.3,-6.95 -6.44,-12.7 -6.44,-17.23 0,-1.09 0.46,-1.64 1.4,-1.64 h 45.71 c 0.78,0 1.17,0.78 1.17,2.34 0,5 -2.11,10.75 -6.33,17.23 -4.22,6.49 -9.84,9.73 -16.88,9.73 z m 2.35,8.67 c 7.19,0 13.51,-1.37 18.98,-4.1 5.47,-2.74 9.65,-6.25 12.54,-10.55 2.89,-4.3 5,-8.67 6.33,-13.12 1.33,-4.46 1.99,-8.87 1.99,-13.25 0,-3.121 -0.47,-5.031 -1.41,-5.742 -0.93,-0.699 -2.73,-1.047 -5.39,-1.047 h -59.06 c -1.25,0 -1.87,-0.39 -1.87,-1.171 0,-9.848 2.97,-18.911 8.9,-27.192 5.94,-8.277 14.53,-12.418 25.78,-12.418 3.29,0 6.41,0.309 9.38,0.93 2.97,0.629 5.51,1.371 7.62,2.23 2.11,0.86 3.9,1.719 5.39,2.578 1.48,0.864 2.77,1.68 3.86,2.461 l 1.65,1.172 c 0.93,0 1.4,-1.011 1.4,-3.051 0,-1.25 -0.47,-2.652 -1.4,-4.21 -3.13,-4.379 -7.74,-8.321 -13.83,-11.84 -6.1,-3.52 -12.74,-5.27 -19.93,-5.27 -12.96,0 -24.1,4.879 -33.39,14.641 -9.3,9.769 -13.95,21.679 -13.95,35.75 0,16.399 4.42,29.369 13.24,38.899 8.83,9.53 19.89,14.3 33.17,14.3 z m 114.37,0.23 c 9.22,0 15.32,-2.26 18.28,-6.79 0,-5.47 -0.86,-9.46 -2.57,-11.96 -1.72,-2.5 -3.83,-3.75 -6.33,-3.75 -2.82,0 -5.39,1.33 -7.74,3.99 -2.34,2.65 -5.54,3.98 -9.61,3.98 -4.84,0 -9.06,-2.26 -12.65,-6.79 -3.6,-4.54 -5.39,-9.3 -5.39,-14.3 v -35.161 c 0,-9.058 0.62,-16.008 1.87,-20.859 0.31,-1.09 2.38,-2.141 6.21,-3.16 3.83,-1.02 6.53,-1.52 8.09,-1.52 0.47,0 0.78,-0.941 0.94,-2.82 0.15,-1.871 0.07,-3.199 -0.24,-3.981 -15.62,0.782 -24.06,1.172 -25.31,1.172 -0.94,0 -9.45,-0.39 -25.55,-1.172 -0.62,0.621 -0.94,1.911 -0.94,3.871 0,1.95 0.32,2.93 0.94,2.93 1.88,0 4.65,0.5 8.32,1.52 3.67,1.019 5.67,2.07 5.98,3.16 1.09,4.539 1.64,10 1.64,16.41 v 44.3 c 0,6.09 -1.09,10.31 -3.28,12.65 -1.56,1.88 -3.48,3.17 -5.74,3.87 -2.27,0.7 -4.14,1.05 -5.63,1.05 -1.48,0 -2.23,0.16 -2.23,0.47 0,3.75 0.47,5.71 1.41,5.86 16.56,2.5 27.35,4.53 32.35,6.1 0.15,0 0.39,0.04 0.7,0.11 0.31,0.08 0.47,0.12 0.47,0.12 0.62,0 1.01,-0.66 1.17,-1.99 0.16,-1.33 0.16,-2.31 0,-2.93 l -1.41,-11.72 c 2.81,4.22 6.68,8.16 11.6,11.84 4.93,3.67 9.81,5.5 14.65,5.5 z m 110.16,-15 c 0,5 -5.63,7.5 -16.88,7.5 -0.62,0 -0.93,0.98 -0.93,2.93 0,1.96 0.31,3.25 0.93,3.87 1.72,-0.16 4.93,-0.39 9.61,-0.7 4.69,-0.31 8.91,-0.47 12.66,-0.47 l 23.44,1.17 c 0.31,-0.94 0.47,-2.11 0.47,-3.51 0,-2.19 -0.55,-3.29 -1.64,-3.29 -2.19,0 -5.08,-0.62 -8.68,-1.87 -3.59,-1.25 -6.01,-3.28 -7.26,-6.09 l -37.27,-84.141 c -0.31,-1.098 -1.25,-2.27 -2.81,-3.52 -1.56,-1.25 -2.89,-1.879 -3.98,-1.879 -1.1,0 -1.8,0.321 -2.11,0.942 -2.66,5.777 -8.48,19.219 -17.47,40.308 -8.98,21.098 -16.83,38.29 -23.55,51.57 -1.56,3.12 -6.17,4.68 -13.83,4.68 -0.62,0 -0.94,1.02 -0.94,3.05 0,1.88 0.32,3.13 0.94,3.75 16.1,-0.78 24.22,-1.17 24.38,-1.17 l 23.43,1.17 c 0.32,-0.62 0.36,-1.91 0.12,-3.87 -0.23,-1.95 -0.58,-2.93 -1.05,-2.93 -7.66,0 -11.49,-1.32 -11.49,-3.98 0,-0.31 0.08,-0.62 0.24,-0.94 l 28.12,-63.509 23.67,53.899 c 1.25,2.97 1.88,5.32 1.88,7.03 z m 49.1,43.25 c -2.27,2.26 -3.4,5.04 -3.4,8.32 0,3.28 1.13,6.05 3.4,8.32 2.27,2.26 5.04,3.4 8.32,3.4 3.28,0 6.06,-1.14 8.32,-3.4 2.27,-2.27 3.4,-5.04 3.4,-8.32 0,-3.28 -1.13,-6.06 -3.4,-8.32 -2.26,-2.27 -5.04,-3.4 -8.32,-3.4 -3.28,0 -6.05,1.13 -8.32,3.4 z m 19.1,-50.75 v -48.281 c 0,-9.058 0.63,-16.008 1.88,-20.859 0.31,-1.09 2.34,-2.141 6.09,-3.16 3.75,-1.02 6.41,-1.52 7.97,-1.52 0.47,0 0.78,-0.941 0.94,-2.82 0.15,-1.871 0.08,-3.199 -0.24,-3.981 -15.62,0.782 -23.98,1.172 -25.08,1.172 -1.09,0 -9.6,-0.39 -25.54,-1.172 -0.63,0.621 -0.94,1.911 -0.94,3.871 0,1.95 0.31,2.93 0.94,2.93 1.87,0 4.65,0.5 8.32,1.52 3.67,1.019 5.66,2.07 5.97,3.16 1.1,4.539 1.65,10 1.65,16.41 v 44.3 c 0,6.09 -1.1,10.31 -3.29,12.65 -1.56,1.88 -3.47,3.17 -5.74,3.87 -2.26,0.7 -4.14,1.05 -5.62,1.05 -1.49,0 -2.23,0.16 -2.23,0.47 0,3.75 0.47,5.71 1.41,5.86 16.56,2.5 27.34,4.53 32.34,6.1 l 0.47,0.23 c 0.31,0 0.55,0 0.7,0 0.63,0 1.02,-0.66 1.17,-1.99 0.16,-1.33 0.16,-2.31 0,-2.93 -0.78,-6.25 -1.17,-11.88 -1.17,-16.88 z m 74.77,22.27 c 17.19,0 29.06,-3.98 35.62,-11.95 0,-10.47 -2.89,-15.71 -8.67,-15.71 -2.66,0 -4.69,0.59 -6.09,1.76 -1.41,1.17 -3.21,3.32 -5.39,6.45 -4.85,7.18 -10.63,10.78 -17.35,10.78 -6.4,0 -12.22,-3.05 -17.46,-9.14 -5.23,-6.1 -7.85,-15.16 -7.85,-27.19 0,-12.5 3.09,-22.891 9.26,-31.172 6.17,-8.277 14.72,-12.418 25.66,-12.418 3.28,0 6.41,0.309 9.38,0.93 2.97,0.629 5.5,1.371 7.61,2.23 2.11,0.86 3.91,1.719 5.39,2.578 1.49,0.864 2.78,1.68 3.87,2.461 l 1.64,1.172 c 0.94,0 1.41,-1.011 1.41,-3.051 0,-1.25 -0.47,-2.652 -1.41,-4.21 -3.12,-4.379 -7.73,-8.321 -13.83,-11.84 -6.09,-3.52 -12.73,-5.27 -19.92,-5.27 -12.97,0 -24.1,4.879 -33.4,14.641 -9.29,9.769 -13.94,21.679 -13.94,35.75 0,14.371 3.9,26.829 11.72,37.379 7.81,10.55 19.06,15.82 33.75,15.82 z m 93.51,-8.67 c -8.12,0 -14.33,-3.48 -18.63,-10.43 -4.3,-6.95 -6.45,-12.7 -6.45,-17.23 0,-1.09 0.47,-1.64 1.41,-1.64 h 45.7 c 0.79,0 1.18,0.78 1.18,2.34 0,5 -2.11,10.75 -6.33,17.23 -4.22,6.49 -9.85,9.73 -16.88,9.73 z m 2.35,8.67 c 7.18,0 13.51,-1.37 18.98,-4.1 5.47,-2.74 9.65,-6.25 12.54,-10.55 2.89,-4.3 5,-8.67 6.33,-13.12 1.33,-4.46 1.99,-8.87 1.99,-13.25 0,-3.121 -0.47,-5.031 -1.41,-5.742 -0.93,-0.699 -2.73,-1.047 -5.39,-1.047 h -59.06 c -1.25,0 -1.87,-0.39 -1.87,-1.171 0,-9.848 2.96,-18.911 8.9,-27.192 5.94,-8.277 14.53,-12.418 25.78,-12.418 3.28,0 6.41,0.309 9.38,0.93 2.97,0.629 5.51,1.371 7.62,2.23 2.11,0.86 3.9,1.719 5.39,2.578 1.48,0.864 2.77,1.68 3.86,2.461 l 1.64,1.172 c 0.94,0 1.41,-1.011 1.41,-3.051 0,-1.25 -0.47,-2.652 -1.41,-4.21 -3.12,-4.379 -7.73,-8.321 -13.82,-11.84 -6.1,-3.52 -12.74,-5.27 -19.93,-5.27 -12.96,0 -24.1,4.879 -33.39,14.641 -9.3,9.769 -13.95,21.679 -13.95,35.75 0,16.399 4.41,29.369 13.24,38.899 8.83,9.53 19.89,14.3 33.17,14.3 z" /></g></g></svg>